<svg id="Laag_1" data-name="Laag 1" xmlns="http://www.w3.org/2000/svg" viewBox="0 0 86 72"><path d="M34,71c-.3,2.67-5.87-.92-7.32-1.35-8.53,3.71-11.81,1.17-14.33-1.56,1.49.9,2-.23,5.63-.31,4.72,0,5.53,2.52,8.22,1.63a38.12,38.12,0,0,1-7.4-5c-.68-.29-1.6,0-2.31-.2C9,67.15,5.12,59.53,5.12,59.53c1.26,1.21,3.71.8,7.22,1.54,4.4,1,3,3.18,5.9,2.89A38.49,38.49,0,0,1,11,55.32C2.22,53.68,1,48.24.84,45.7c.68,1.62,2.53,1.77,5.47,3.86C9.84,52,8.57,53.9,10.64,54.71a38.15,38.15,0,0,1-4.3-10.44A21.62,21.62,0,0,1,4.9,42.43c-8-2.75-3.81-11.84-3.81-11.84-.1,1.75.88,3,2.6,6.17,2.23,4,.75,4.76,2.46,6.72a39.41,39.41,0,0,1-.73-13c.12-1-.55-1.93-.66-2.83-5.7-5.26.63-12.29.76-12.42-.73,1.59-.31,3.12.13,6.73.62,4.63-1,4.73-.06,7.3A38.54,38.54,0,0,1,7.2,22.43c.92-2.78,2.62-5.33,2.36-8.32C7.1,5.44,14.39,2.66,14.39,2.66,13.17,3.91,13.78,6,12.77,9.58c-1.45,4.71-3.21,3.47-3,6.91A46.46,46.46,0,0,1,17.91,5.83c2.94-7.54,11-5.61,11-5.61-2.49,0-6.63,7.48-10.51,5.83a31.71,31.71,0,0,0-7.25,8.8c6.34-6.45,11.26-6.48,14.14-5-2.19,0-7.36,5.06-11.45,3.61a24,24,0,0,0-3,2A38.2,38.2,0,0,0,6.68,26.91c4.32-8.59,6.87-8.78,11.13-8.4-1.7.33-1.54,2.39-4.47,4.5s-4.18,2.1-4.71,2.06c-2.29,2.41-2.2,2.74-2.44,5.45a39.46,39.46,0,0,0,.26,8.89c.71-9.59,4.48-11.14,8-12.19-1.48.93-1.32,3.25-2.9,6.52A6,6,0,0,1,7.57,37.2c-2.23,4.27.78,9.5,2.44,13.54-3-8.72.73-12.22,3.05-13.93-1,1.41-.08,3-.37,6.63a7.69,7.69,0,0,1-2.5,5.19C9.71,53.44,15,58.27,18,61.51c-6-6.68-3.8-11.72-2.43-13.91-.42,1.71.44,3,2.11,6.79a5.53,5.53,0,0,1-.13,5.2c1.47,4.29,5.48,5.72,9,7.84-6.07-4-5.5-8.61-4.78-10.61,0,1.44,1.11,1.46,3,5,1.9,3.77.05,3.84,2.4,6a37.58,37.58,0,0,0,6,2.22,1.1,1.1,0,0,1,.58.39A1.11,1.11,0,0,1,34,71Z" transform="translate(0 0)"/><path d="M72.41,13.23C69.49,15.54,63.13,9,60.85,9.61,64.34,7.89,69,7.82,75.13,14.67a31.9,31.9,0,0,0-7.32-8.82C64,6.73,59.1.75,57,.32c0,0,8.26-2.26,11.23,5.3a47.58,47.58,0,0,1,8.22,10.69c.27-3.21-1.6-2.33-3-6.92-1-3.63-.4-5.69-1.63-7,0,0,7.66,3.85,4.88,11.49-.26,3,1.46,5.55,2.38,8.34a38.12,38.12,0,0,1,1.62,6.81c1.19-2.65-1.32-2.67-.83-7.31.45-3.63,1.65-5.16.91-6.76.13.14,6,5.8.93,12-.12,1-1,2.3-.84,3.31a38.87,38.87,0,0,1-.73,13.08c1.88-1.93.22-3,2.39-7,1.74-3.21,2.83-4.12,2.72-5.88,1.32,2.8,1.71,8.26-5.3,13.73a38.2,38.2,0,0,1-4.34,10.46c2.08-.79.87-2.87,4.43-5.33,3-2.09,4.77-2.08,5.46-3.71.21,1.94-2.07,8.52-10.26,9.65a38.47,38.47,0,0,1-7.31,8.67c2.87.25,1.83-1.9,6.32-2.91,3.55-.74,5.66-.32,6.92-1.54-1.74,3.36-4.75,6.25-13.8,4.93a38.52,38.52,0,0,1-7.47,5c2.79.93,2.27-1.4,6.89-1.39,3.63.08,5.59,1,7.09.07-1.94,2.53-6.53,5.3-14.47,1.57-1.62.43-6.84,4-7.39,1.35.34-1.76,5.24-2,6.82-3.27,2.23-1.7.48-2.78,2.39-6.29,1.6-2.52,3.09-3.24,3.1-4.68.81,1.62,1.07,7-4.83,10.64,3.56-2.13,7.6-3.56,9.08-7.86a8.12,8.12,0,0,1-.12-5.8c1.13-3.47,2.54-4.51,2.12-6.22,1.35,1.58,3.44,7.84-2.39,13.89,3.36-3.74,7.92-7.32,7.75-12.83a6.43,6.43,0,0,1-2.29-4.79c-.29-3.64.55-5.66-.5-7.07,2,1,6.17,6.08,3.08,14,1.72-4.44,4.7-8.73,2.47-13.59C78.15,37,76.31,36.75,75,34c-1.6-3.28-1.69-5.92-3.18-6.86,2.91.49,7.72,3.36,8,12.23a39.15,39.15,0,0,0,.27-8.92c-.19-2.53-.25-3.22-2.47-5.46-3.84.86-7.79-6.35-10-6.87,3.3-.58,8.31.44,12,8.72a38,38,0,0,0-4.19-11.65" transform="translate(0 0)"/><path d="M36.07,50V30.16L49.93,50H55V22H49.93V41.84L36.11,22H31V50Z" transform="translate(0 0)"/></svg>