<?xml version="1.0" encoding="utf-8"?>
<!-- Generator: Adobe Illustrator 26.0.3, SVG Export Plug-In . SVG Version: 6.00 Build 0)  -->
<svg version="1.1" id="Laag_1" xmlns="http://www.w3.org/2000/svg" xmlns:xlink="http://www.w3.org/1999/xlink" x="0px" y="0px"
	 viewBox="0 0 86 72" style="enable-background:new 0 0 86 72;" xml:space="preserve">
<style type="text/css">
	.st0{fill:#536942;}
</style>
<path class="st0" d="M34,71c-0.3,2.7-5.9-0.9-7.3-1.3c-8.5,3.7-11.8,1.2-14.3-1.6c1.5,0.9,2-0.2,5.6-0.3c4.7-0.1,5.5,2.5,8.2,1.6
	c-2.6-1.4-5.1-3-7.4-5c-0.7-0.3-1.6,0-2.3-0.2c-7.5,3-11.4-4.7-11.4-4.7c1.3,1.2,3.7,0.8,7.2,1.5c4.4,1,3,3.2,5.9,2.9
	c-2.8-2.5-5.3-5.4-7.2-8.6c-8.8-1.6-10-7.1-10.2-9.6c0.7,1.6,2.5,1.8,5.5,3.9c3.5,2.5,2.3,4.3,4.3,5.2C8.7,51.6,7.2,48,6.3,44.4
	c-0.5-0.6-1-1.2-1.4-1.8c-8-2.8-3.8-11.8-3.8-11.8C1,32.6,2,33.8,3.7,37c2.2,4,0.8,4.8,2.5,6.7c-1-4.3-1.2-8.7-0.7-13
	c0.1-1-0.6-1.9-0.7-2.8c-5.7-5.3,0.6-12.3,0.8-12.4c-0.7,1.6-0.3,3.1,0.1,6.7c0.6,4.6-1,4.7-0.1,7.3c0.3-2.3,0.9-4.6,1.6-6.8
	c0.9-2.8,2.6-5.3,2.4-8.3c-2.5-9,4.8-11.7,4.8-11.7c-1.2,1.2-0.6,3.4-1.6,6.9c-1.5,4.7-3.2,3.5-3,6.9c2-3.9,5.1-7.5,8.1-10.7
	c2.9-7.5,11-5.6,11-5.6c-2.5,0-6.6,7.5-10.5,5.8c-2.9,2.5-5.4,5.4-7.3,8.8c6.3-6.5,11.3-6.5,14.1-5c-2.2,0-7.4,5.1-11.5,3.6
	c-2,1.3-2.7,1.8-3,2c-2,3.6-3.3,7.4-4.1,11.4c4.3-8.6,6.9-8.8,11.1-8.4c-1.7,0.3-1.5,2.4-4.5,4.5C10.4,24.9,9,25,8.5,25
	c-2.3,2.4-2.2,2.7-2.4,5.4c-0.2,3-0.2,6,0.3,8.9c0.7-9.6,4.5-11.1,8-12.2c-1.5,0.9-1.3,3.3-2.9,6.5c-1.3,2.8-3.4,3.3-3.9,3.5
	c-2.2,4.3,0.8,9.5,2.4,13.5c-3-8.7,0.7-12.2,3-13.9c-1,1.4-0.1,3-0.4,6.6c-0.2,3.1-2.1,4.9-2.5,5.2c-0.4,4.9,4.9,9.8,7.9,13
	c-6.1-6.7-3.8-11.7-2.4-13.9c-0.4,1.7,0.4,3,2.1,6.8c1.2,2.8,0.1,4.7-0.1,5.2c1.5,4.3,5.5,5.7,9,7.8c-6.1-4-5.5-8.6-4.8-10.6
	c0,1.4,1.1,1.5,3,5c1.9,3.8,0.1,3.8,2.4,6c1.9,0.9,3.9,1.7,6,2.2c0.2,0.1,0.4,0.2,0.6,0.4C33.9,70.5,34,70.8,34,71z"/>
<path class="st0" d="M72.4,13.2c-2.9,2.3-9.3-4.3-11.6-3.6c3.5-1.7,8.1-1.8,14.3,5.1c-1.9-3.4-4.4-6.4-7.3-8.8
	C64,6.7,59.1,0.8,57,0.3c0,0,8.3-2.3,11.2,5.3c3.1,3.1,6.2,6.7,8.2,10.7c0.3-3.2-1.6-2.3-3-6.9c-1-3.6-0.4-5.7-1.6-6.9
	c0,0,7.7,3.8,4.9,11.5c-0.3,3,1.5,5.6,2.4,8.3c0.7,2.2,1.3,4.5,1.6,6.8c1.2-2.7-1.3-2.7-0.8-7.3c0.4-3.6,1.6-5.2,0.9-6.8
	c0.1,0.1,6,5.8,0.9,12c-0.1,1-1,2.3-0.8,3.3c0.5,4.4,0.2,8.8-0.7,13.1c1.9-1.9,0.2-3,2.4-7.1c1.7-3.2,2.8-4.1,2.7-5.9
	c1.3,2.8,1.7,8.3-5.3,13.7c-0.9,3.7-2.4,7.2-4.3,10.5c2.1-0.8,0.9-2.9,4.4-5.3c3-2.1,4.8-2.1,5.5-3.7c0.2,1.9-2.1,8.5-10.3,9.6
	c-2,3.2-4.5,6.2-7.3,8.7c2.9,0.3,1.8-1.9,6.3-2.9c3.6-0.7,5.7-0.3,6.9-1.5c-1.7,3.4-4.8,6.2-13.8,4.9c-2.3,2-4.8,3.6-7.5,5
	c2.8,0.9,2.3-1.4,6.9-1.4c3.6,0.1,5.6,1,7.1,0.1c-1.9,2.5-6.5,5.3-14.5,1.6c-1.6,0.4-6.8,4-7.4,1.4c0.3-1.8,5.2-2,6.8-3.3
	c2.2-1.7,0.5-2.8,2.4-6.3c1.6-2.5,3.1-3.2,3.1-4.7c0.8,1.6,1.1,7-4.8,10.6c3.6-2.1,7.6-3.6,9.1-7.9c-0.3-0.5-1.1-2.9-0.1-5.8
	c1.1-3.5,2.5-4.5,2.1-6.2c1.4,1.6,3.4,7.8-2.4,13.9c3.4-3.7,7.9-7.3,7.7-12.8c-0.4-0.3-2-1.7-2.3-4.8c-0.3-3.6,0.6-5.7-0.5-7.1
	c2,1,6.2,6.1,3.1,14c1.7-4.4,4.7-8.7,2.5-13.6c-0.5-0.1-2.4-0.4-3.7-3.2c-1.6-3.3-1.7-5.9-3.2-6.9c2.9,0.5,7.7,3.4,8,12.2
	c0.4-3,0.5-5.9,0.3-8.9c-0.2-2.5-0.2-3.2-2.5-5.5c-3.8,0.9-7.8-6.3-10-6.9c3.3-0.6,8.3,0.4,12,8.7c-0.8-4.1-2.2-8-4.2-11.6"/>
<path class="st0" d="M36.1,50V30.2L49.9,50H55V22h-5.1v19.8L36.1,22H31v28H36.1z"/>
</svg>
